<mxfile host="app.diagrams.net" modified="2022-10-31T11:26:52.904Z" agent="5.0 (Windows NT 10.0; Win64; x64) AppleWebKit/537.36 (KHTML, like Gecko) Chrome/107.0.0.0 Safari/537.36 Edg/107.0.1418.26" etag="fVQpBas9GYenMKqt8m2l" version="20.5.1" type="github" pages="2">
  <diagram id="jktTJtfP9Cg55kZzYath" name="第 1 页">
    <mxGraphModel dx="1550" dy="859" grid="1" gridSize="10" guides="1" tooltips="1" connect="1" arrows="1" fold="1" page="1" pageScale="1" pageWidth="827" pageHeight="1169" math="0" shadow="0">
      <root>
        <mxCell id="0" />
        <mxCell id="1" parent="0" />
        <mxCell id="bGKQNCjEQ0-yaXYgSsXo-5" value="&lt;p style=&quot;margin:0px;margin-top:4px;text-align:center;&quot;&gt;&lt;i&gt;&amp;lt;&amp;lt;Interface&amp;gt;&amp;gt;&lt;/i&gt;&lt;br&gt;&lt;b&gt;Prototype&lt;/b&gt;&lt;/p&gt;&lt;hr size=&quot;1&quot;&gt;&lt;p style=&quot;margin:0px;margin-left:4px;&quot;&gt;+ clone(): Prototype&lt;/p&gt;" style="verticalAlign=top;align=left;overflow=fill;fontSize=12;fontFamily=Helvetica;html=1;" parent="1" vertex="1">
          <mxGeometry x="435" y="180" width="190" height="80" as="geometry" />
        </mxCell>
        <mxCell id="bGKQNCjEQ0-yaXYgSsXo-6" value="ConcretePrototype" style="swimlane;fontStyle=1;align=center;verticalAlign=top;childLayout=stackLayout;horizontal=1;startSize=26;horizontalStack=0;resizeParent=1;resizeParentMax=0;resizeLast=0;collapsible=1;marginBottom=0;" parent="1" vertex="1">
          <mxGeometry x="380" y="350" width="300" height="112" as="geometry" />
        </mxCell>
        <mxCell id="bGKQNCjEQ0-yaXYgSsXo-7" value="- field1" style="text;strokeColor=none;fillColor=none;align=left;verticalAlign=top;spacingLeft=4;spacingRight=4;overflow=hidden;rotatable=0;points=[[0,0.5],[1,0.5]];portConstraint=eastwest;" parent="bGKQNCjEQ0-yaXYgSsXo-6" vertex="1">
          <mxGeometry y="26" width="300" height="26" as="geometry" />
        </mxCell>
        <mxCell id="bGKQNCjEQ0-yaXYgSsXo-8" value="" style="line;strokeWidth=1;fillColor=none;align=left;verticalAlign=middle;spacingTop=-1;spacingLeft=3;spacingRight=3;rotatable=0;labelPosition=right;points=[];portConstraint=eastwest;strokeColor=inherit;" parent="bGKQNCjEQ0-yaXYgSsXo-6" vertex="1">
          <mxGeometry y="52" width="300" height="8" as="geometry" />
        </mxCell>
        <mxCell id="bGKQNCjEQ0-yaXYgSsXo-10" value="+ ConcretePrototype(prototype: ConcretePrototype)" style="text;strokeColor=none;fillColor=none;align=left;verticalAlign=top;spacingLeft=4;spacingRight=4;overflow=hidden;rotatable=0;points=[[0,0.5],[1,0.5]];portConstraint=eastwest;" parent="bGKQNCjEQ0-yaXYgSsXo-6" vertex="1">
          <mxGeometry y="60" width="300" height="26" as="geometry" />
        </mxCell>
        <mxCell id="bGKQNCjEQ0-yaXYgSsXo-9" value="+ clone(): Prototype" style="text;strokeColor=none;fillColor=none;align=left;verticalAlign=top;spacingLeft=4;spacingRight=4;overflow=hidden;rotatable=0;points=[[0,0.5],[1,0.5]];portConstraint=eastwest;" parent="bGKQNCjEQ0-yaXYgSsXo-6" vertex="1">
          <mxGeometry y="86" width="300" height="26" as="geometry" />
        </mxCell>
        <mxCell id="bGKQNCjEQ0-yaXYgSsXo-11" value="SubclassPrototype" style="swimlane;fontStyle=1;align=center;verticalAlign=top;childLayout=stackLayout;horizontal=1;startSize=26;horizontalStack=0;resizeParent=1;resizeParentMax=0;resizeLast=0;collapsible=1;marginBottom=0;" parent="1" vertex="1">
          <mxGeometry x="382" y="550" width="300" height="112" as="geometry" />
        </mxCell>
        <mxCell id="bGKQNCjEQ0-yaXYgSsXo-12" value="- field2" style="text;strokeColor=none;fillColor=none;align=left;verticalAlign=top;spacingLeft=4;spacingRight=4;overflow=hidden;rotatable=0;points=[[0,0.5],[1,0.5]];portConstraint=eastwest;" parent="bGKQNCjEQ0-yaXYgSsXo-11" vertex="1">
          <mxGeometry y="26" width="300" height="26" as="geometry" />
        </mxCell>
        <mxCell id="bGKQNCjEQ0-yaXYgSsXo-13" value="" style="line;strokeWidth=1;fillColor=none;align=left;verticalAlign=middle;spacingTop=-1;spacingLeft=3;spacingRight=3;rotatable=0;labelPosition=right;points=[];portConstraint=eastwest;strokeColor=inherit;" parent="bGKQNCjEQ0-yaXYgSsXo-11" vertex="1">
          <mxGeometry y="52" width="300" height="8" as="geometry" />
        </mxCell>
        <mxCell id="bGKQNCjEQ0-yaXYgSsXo-14" value="+ SubclassPrototype(prototype: SubclassPrototype)" style="text;strokeColor=none;fillColor=none;align=left;verticalAlign=top;spacingLeft=4;spacingRight=4;overflow=hidden;rotatable=0;points=[[0,0.5],[1,0.5]];portConstraint=eastwest;" parent="bGKQNCjEQ0-yaXYgSsXo-11" vertex="1">
          <mxGeometry y="60" width="300" height="26" as="geometry" />
        </mxCell>
        <mxCell id="bGKQNCjEQ0-yaXYgSsXo-15" value="+ clone(): Prototype" style="text;strokeColor=none;fillColor=none;align=left;verticalAlign=top;spacingLeft=4;spacingRight=4;overflow=hidden;rotatable=0;points=[[0,0.5],[1,0.5]];portConstraint=eastwest;" parent="bGKQNCjEQ0-yaXYgSsXo-11" vertex="1">
          <mxGeometry y="86" width="300" height="26" as="geometry" />
        </mxCell>
        <mxCell id="bGKQNCjEQ0-yaXYgSsXo-16" value="" style="endArrow=block;dashed=1;endFill=0;endSize=12;html=1;rounded=0;exitX=0.5;exitY=0;exitDx=0;exitDy=0;entryX=0.5;entryY=1;entryDx=0;entryDy=0;" parent="1" source="bGKQNCjEQ0-yaXYgSsXo-6" target="bGKQNCjEQ0-yaXYgSsXo-5" edge="1">
          <mxGeometry width="160" relative="1" as="geometry">
            <mxPoint x="500" y="310" as="sourcePoint" />
            <mxPoint x="660" y="310" as="targetPoint" />
          </mxGeometry>
        </mxCell>
        <mxCell id="bGKQNCjEQ0-yaXYgSsXo-17" value="Extends" style="endArrow=block;endSize=16;endFill=0;html=1;rounded=0;exitX=0.5;exitY=0;exitDx=0;exitDy=0;entryX=0.503;entryY=1.008;entryDx=0;entryDy=0;entryPerimeter=0;" parent="1" source="bGKQNCjEQ0-yaXYgSsXo-11" target="bGKQNCjEQ0-yaXYgSsXo-9" edge="1">
          <mxGeometry width="160" relative="1" as="geometry">
            <mxPoint x="490" y="500" as="sourcePoint" />
            <mxPoint x="650" y="500" as="targetPoint" />
          </mxGeometry>
        </mxCell>
        <mxCell id="bGKQNCjEQ0-yaXYgSsXo-18" value="" style="endArrow=none;dashed=1;html=1;dashPattern=1 3;strokeWidth=2;rounded=0;entryX=0;entryY=0.5;entryDx=0;entryDy=0;exitX=1;exitY=1;exitDx=0;exitDy=0;exitPerimeter=0;" parent="1" source="bGKQNCjEQ0-yaXYgSsXo-19" target="bGKQNCjEQ0-yaXYgSsXo-10" edge="1">
          <mxGeometry width="50" height="50" relative="1" as="geometry">
            <mxPoint x="300" y="420" as="sourcePoint" />
            <mxPoint x="340" y="410" as="targetPoint" />
          </mxGeometry>
        </mxCell>
        <mxCell id="bGKQNCjEQ0-yaXYgSsXo-19" value="this.field1 = prototype.field1" style="shape=note;whiteSpace=wrap;html=1;backgroundOutline=1;darkOpacity=0.05;align=left;fillColor=#6d8764;fontColor=#ffffff;strokeColor=#3A5431;" parent="1" vertex="1">
          <mxGeometry x="140" y="340" width="200" height="58" as="geometry" />
        </mxCell>
        <mxCell id="bGKQNCjEQ0-yaXYgSsXo-20" value="" style="endArrow=none;dashed=1;html=1;dashPattern=1 3;strokeWidth=2;rounded=0;entryX=0;entryY=0.923;entryDx=0;entryDy=0;exitX=1;exitY=1;exitDx=0;exitDy=0;exitPerimeter=0;entryPerimeter=0;" parent="1" source="bGKQNCjEQ0-yaXYgSsXo-21" target="bGKQNCjEQ0-yaXYgSsXo-9" edge="1">
          <mxGeometry width="50" height="50" relative="1" as="geometry">
            <mxPoint x="300" y="505.5" as="sourcePoint" />
            <mxPoint x="420" y="431.5" as="targetPoint" />
          </mxGeometry>
        </mxCell>
        <mxCell id="bGKQNCjEQ0-yaXYgSsXo-21" value="return new ConcretePrototype(this);" style="shape=note;whiteSpace=wrap;html=1;backgroundOutline=1;darkOpacity=0.05;align=left;fillColor=#6d8764;fontColor=#ffffff;strokeColor=#3A5431;" parent="1" vertex="1">
          <mxGeometry x="100" y="425.5" width="230" height="47" as="geometry" />
        </mxCell>
        <mxCell id="bGKQNCjEQ0-yaXYgSsXo-22" value="" style="endArrow=none;dashed=1;html=1;dashPattern=1 3;strokeWidth=2;rounded=0;entryX=0;entryY=0.5;entryDx=0;entryDy=0;exitX=1;exitY=1;exitDx=0;exitDy=0;exitPerimeter=0;" parent="1" source="bGKQNCjEQ0-yaXYgSsXo-23" edge="1">
          <mxGeometry width="50" height="50" relative="1" as="geometry">
            <mxPoint x="300" y="619.75" as="sourcePoint" />
            <mxPoint x="380" y="622.75" as="targetPoint" />
          </mxGeometry>
        </mxCell>
        <mxCell id="bGKQNCjEQ0-yaXYgSsXo-23" value="super(prototype);&lt;br&gt;this.field2 = prototype.field2;" style="shape=note;whiteSpace=wrap;html=1;backgroundOutline=1;darkOpacity=0.05;align=left;fillColor=#6d8764;fontColor=#ffffff;strokeColor=#3A5431;" parent="1" vertex="1">
          <mxGeometry x="140" y="539.75" width="200" height="58" as="geometry" />
        </mxCell>
        <mxCell id="bGKQNCjEQ0-yaXYgSsXo-24" value="" style="endArrow=none;dashed=1;html=1;dashPattern=1 3;strokeWidth=2;rounded=0;entryX=0;entryY=0.923;entryDx=0;entryDy=0;exitX=1;exitY=1;exitDx=0;exitDy=0;exitPerimeter=0;entryPerimeter=0;" parent="1" source="bGKQNCjEQ0-yaXYgSsXo-25" edge="1">
          <mxGeometry width="50" height="50" relative="1" as="geometry">
            <mxPoint x="300" y="705.25" as="sourcePoint" />
            <mxPoint x="380" y="659.748" as="targetPoint" />
          </mxGeometry>
        </mxCell>
        <mxCell id="bGKQNCjEQ0-yaXYgSsXo-25" value="return new&amp;nbsp;&lt;span style=&quot;color: rgb(240, 240, 240); font-weight: 700; text-align: center;&quot;&gt;SubclassPrototype&lt;/span&gt;(this);" style="shape=note;whiteSpace=wrap;html=1;backgroundOutline=1;darkOpacity=0.05;align=left;fillColor=#6d8764;fontColor=#ffffff;strokeColor=#3A5431;" parent="1" vertex="1">
          <mxGeometry x="100" y="625.25" width="230" height="47" as="geometry" />
        </mxCell>
      </root>
    </mxGraphModel>
  </diagram>
  <diagram id="BWnoiilawLIJ8NcM0VhB" name="第 2 页">
    <mxGraphModel dx="1550" dy="859" grid="1" gridSize="10" guides="1" tooltips="1" connect="1" arrows="1" fold="1" page="1" pageScale="1" pageWidth="827" pageHeight="1169" math="0" shadow="0">
      <root>
        <mxCell id="0" />
        <mxCell id="1" parent="0" />
        <mxCell id="e8tyRPrOOd04M5u1lNey-1" value="" style="shape=image;verticalLabelPosition=bottom;labelBackgroundColor=default;verticalAlign=top;aspect=fixed;imageAspect=0;image=data:image/png,iVBORw0KGgoAAAANSUhEUgAAAfQAAAGQCAMAAABvbWL0AAABTVBMVEUAAABUVFTCwsJmZmbDw8NISEhlZWVISEjCwsJlZWVcXFxmZmZJSUliYmJmZmZkZGRlZWVlZWVhYWHCwsLCwsLDw8NmZmbCwsJmZmZlZWVlZWVlZWXCwsLCwsLCwsJkZGTDw8PAwMD39/fr6+tJSUnDw8NmZmbz8/NLS0vc3Nxqamrm5ubT09Pk5ORPT0/i4uLo6OjX19fJyclNTU1ubm5YWFjBwcFdXV1VVVV+fn7e3t7GxsZZWVlRUVFfX1+qqqrw8PCjo6N7e3tjY2O5ubnQ0NDLy8txcXHV1dWfn5/q6urZ2dm0tLShoaG9vb3u7u7g4OBhYWHNzc1zc3OHh4d4eHh2dnZbW1uXl5ePj49nZ2eTk5OsrKyEhISOjo6np6dTU1O2tra/v7+cnJyVlZWJiYmLi4uxsbGAgICZmZmvr6+SkpKDg4OoqKjt7e2hML7eAAAAInRSTlMAGhXo1Oa9prWmC/btKuA//FId776ufVzQk2hiRHzahJ8wxm+/jgAAAQFpVFh0WE1MOmNvbS5hZG9iZS54bXAAAAAAADw/eHBhY2tldCBiZWdpbj0i77u/Ij8+PHI6UkRGIHhtbG5zOnI9Imh0dHA6Ly93d3cudzMub3JnLzE5OTkvMDIvMjItcmRmLXN5bnRheC1ucyMiPjxyOkRlc2NyaXB0aW9uIHhtbG5zOng9Imh0dHA6Ly9ucy5hZG9iZS5jb20veGFwLzEuMC8iPjx4OkNyZWF0ZURhdGU+MjAyMC0wMi0xM1QxNDo1ODowNCswMjowMDwveDpDcmVhdGVEYXRlPjwvcjpEZXNjcmlwdGlvbj48L3I6UkRGPjw/eHBhY2tldCBlbmQ9InIiPz7CRp/aAAA1pklEQVR42uzcSVMaQQCGYXNIUtmrcsglh1R9fNLAjMM2KLujQkREQCKyBCPBBRKX/3/MACECmgRNERvp92QLB6afdoShYUGlUqlUKpVKpVKpVCqVSqWaiR49fUy5evz00YJqmj16Sfl6qdSn2lOueyFX3nU+XVBNsceUzRzw8vGCaoqRkC9yQXWVQlcpdJVCVyl0lUJX3Qndwl8SWYUufbdDX3Sl8cdyQZoKXfZuh750lB0a1ATGC+0Uigpd9kjctY+0MJbFtPqfLn+Topf8CHhR9GjwlfVPiUoO7V3WPX54I+FEp/vb/O5moM5dT8x/4oybAQDLHiNUhThKBj32MF9ATih0GZoQPVvJecMxuOnFEldSeiSYjV5wOXYpkpGPsXoHSzTzJa3FRkzTV9OlSAhI80TXA6iupDInCQfWD4R5ptBlaEL0TkR8OsNP9BawzVL/9N5yLQGrISzxIwAHdfQqMYuDDdiJYAO9W7OV1WIzpdAlaDL0tpldK1sDdD8gXMt99LWgaZobwd5vB+jR3FqNl/DU0B2wbt/DvjsyK3opHlXo999k6LF4JpUsDqEj2Oqj7yR1O/8w+prxZe0zBZw7sHMzr9sVgHbSsVMXCv3+IzFJW8nLz6YYRS+xAKQSBdgNozfbQJrAegR2liuPXttGqWT4H97p/dp+M/m3j02ILsqfhXk4iq4xJhyF8J4PGX0YPRTR3PsUSLEtCgHs7WbgawHlLThXH94TuRv3m0m+fYzERPmy0KxRdJTp+o50ksHw12H05SbjrYoX4pvLxQ4cEQZde4BXwP0AX6ffsN9M+u1jJO5e0QG7pfGDFpqAgJ1w9+5QcIuHe3Hm5v1mcm8fU++yzcAEkrP3mO/9IIdS6Ap9NiZQoUuWQpf0IIdS6Ap9NibwH+fj7XOF/t/RNT0qBj/ex3w8e/HsjUL/r+jLuyTjSLEMnPPbPczHE6fT+frDq7uh+6JFCzem0H9bjmxuevb76MeJVVzLf7Y25fl4++617f7k/fNbo1sG7fZLuJ5C/21ak3sWIHroN7fG2vTn482zF06nfZq/LTrp2Uww4cdoqU56dKTQh8oxXIBdH/3QbAOZ9VAzEkXeDFSTzRoOKwyZq9Ofj+fvB6f526G7kU3yCKN5GBgdKfShqlzHFfoZt+A16KmzjgYTwTi5/M1gMLSFP8UV57/0YnT45P0t0fGFkbwZi8S38dVjbFQtlA1umKOjmrkHeM19n9nYWgmfZweLex7RIzwdQz/mHrDCYoNxTWxyp396lxld1Flt0KDL1yad5Dk2XGyG9JHRd7KINs81Bg0PeTJY3POIfnbtL71M8+AgRL3BA+CYx310eU/ve7UNBvUG41GBCi+QId29E/rYqM5DdNjSyDRyNH4t7jlEb7B5OYr+ifs1u2wP/aiH/kXmJ3J2u4voPdpLMtqFbHWZx0Zo0yOaTaGRgJd0DBb3HKIXDXYKQBYpbvbRT1lDtyH0iLwv2civAbf4+Wh9ZAHYYL7LPDaC1WSKp+ih+0lrsLjnEN0mpWE6w2KRwfPtLnqarvWdTvUK3b6lcyHpxRmLdF8tUTS5iCyZgYep8RGq9DDWR29wpbu45/XZO5CKk6z7rAq52EVH2yCNoyt0y0OeS3oZdgx9i+HTEDeBE1Y6+ugIRRdDooveiZCrg8U9n+iAllmC3baGfsIdFRgu6pX1DZcxdHHmIj95gViIrtToCOjwDNBo56qKweKeV3TprluQuGuWP4tuwu+4Noow3UPXMtavxT2np/eHhf773B2a6KHLcZBDKfRpPeYLGrpCnzN0S8/CTui6HAc5lEJXmyhmYwIVumTNJrqM3wI9Q+iz+bEmGb/vfYbQZ/MDjFL2g707aUociKMAbk3Nwbvf4CWhk7BpWJR9EQRliREX3FjEUWHA738cKkknMCNTBVrYqfS7WG3zP/2quho0vB3PxJuPKjOZHe/Ek19KwI9334Vf5HwY/pbNh+HoPgxH92E4+tazu7vuBEf3fCRp7RGO7vV4Gr1YxGJIOEo4usePd0nEf1M3OhW4yciiKHYuOLoHsjE6CbxquSicJMV9vf4WOcByShqWCkA4OgNx0IeT9dDbeaAzXkQnAMmeYjmJ4XIBCEdnIA56twcztIbDQiejfK52AafDA5DUSLYFoNMChkcEgtp00RF/MXs96Ny5Kh+qM7qyCkBGUwBBNV2Znd4cvYVh931w9C1kFTqt4bDQu4lZ41lWnA6P+Wbp4FVuoyhXMf9tHXqt4qKHIw9mrwed0zODbkahK6sARBMbQDOPgvxYP8mXQfs+fIPOykUuaRiDnGFYfI/HzvFOYi0Ad/duh8djB0DtN6rmSZ1tLhzvklTIq7rZ6+HMITF0V/bxbnSB8hiFwTtQEXXa9+EbdFbesgU1bVrWNOtept466GnT4vbK7fBQb+LxeOISTznzpaUF9LzR6b9br6RzFjpd2eizBNFjdRSOASiiQvs+OPoWsvJ4D7RsdNMEwOW1+yXvgdvQPFFUBgAQby2gE1rx4M5Z6HRlowuR5JMBCz0jRmnfB7PouxKj2fvxdejllINelCsADnsuemoKM5ppbEw+RHfnkG26K6sABPg17Y1s9PvBfLfN9u1dYjY/f3wO3f18jdZwXIjnBJeGIrTEkIuelIeEtHVELdsqyHP1X3RnDrUegnRlFYAAoVz+AChkw6gmWrD7PlhGF5gMVd8c3Q2t4SCGHMdZSpRzr3DR0Y/IsqoAhxPgJELmO6MP0OkcHmKxa7qyC0AANQCgIIuxWJfA7vvg6Ouja1T90+huDYdSBKCnyV+baXNzXAN6LwCCBB+FzgnRxdW54Nz/Csdnij2qK4Tp411gMpIUpOrb+oNLNBYK5+rYJO3YvonukU/k2EUXqPq20NG/extjk7yIM3D0L0Gn6ltDR0Yj2CRpxfwRbHD0z6Lb6vyfKHyEbmePo/sGPeOoc3TfoNNw9J0dxtAnV4urxl1IWJlpcuXWfmrWX43O4OPV3/889neiayWH/w/7dtebJhQHYJxkyZJt2evFsu32QSKggBZErbSxvoM11lodtXVda23U7vvfbkBJum4mS7NkhOy50Qvy9+IXDpyYkwF9UWVryle21Tv3yrmt6Mk7Xp2A89jJWN47a4Ieg65aOeb+VvQkHq/+5+ex/wp67tgpH9JvOMourM5MRynmlQy0TBfUUlAxEvJrzoHeldqokybNW+jZF6Z6otUau0ZDZrU+uZg2QT63y8olQf0jzW6H6Lnji71Dl+JmNnX8eBZNE4pldxt68o5XJ+A89t9ANxrnBb3Q2lnn950hS6etbvaM8TlcjYHqcdA1QSsl55kLVkf5zQncmFS1rjFCVuoF1RA9ltrlcHmEa1ZaXqcOMMru57v5AN2QruWR1ackfh42xVY8y5+BobW2ov+zPn4U0lmEPhILwGcTaNywnIMuFoqajjLg546uRqPNBMOs1OQQfZj9ot4t7yG6D8Ws2xJzcBCif1bi5X0kerA6oFRzYfo1nnW8BpR+4tBfvnnzUkhlEfqgBjD2gUmd5QKM7Ahl3ysbgJcNOiXIOa5UKj24FFeE6Fwq5f176AuQRXVgEaOP/Rg9/JUzk5INmDfxrNMmMNlPHPpTSXoqpLIIvaipwOIWsIohXEYc/vD5ds2D7CZBquJfFCJ0yGS7D9GLjgEnIfrmNkZvayrMZzF6OCv6Bmbi7vS30pMn0lshjUXoqnUF3q7WcvuWy3KOfHAC+XKnxIPmHR25ymzizjtGgK5XqWptKlcY99B1Z01rp05uwKXWRh9inqFOD2ntZWL0eNbtFVArJgz9+Svp0yfp1XMhhUXoDMqWNaenWU4flll7pyMDvmXwoOFE26uVSpZMvtEL0EvO3s4Y1ppdv4fOjVazT+tsbNhkbWvAoaawO62JYyNGv5vFtwkUHCNh6O+lD4LwQXovpLA7dNyCDqgFA1jOukOCfJ9f0z2X+6nRxcMqP2V47uQGYxheoQKyDnj5X2fJmkzvmmShv3shvRaE19KLd0L6itHvt1xEbM1yjsfWLeQzZZ0/6nqm262EoT+TnsUf6et36L0vBOVO1zy6s+nFQZ8/S1fqhyQLPbzF4xs+dSXiXzYXN2Ho4cM8frSnrkSgA8lCj17b45d4IW39R/9Nz6MNerxdT9227T/6d/btGAVAGAii6IqwmNLSA7j3P6KNgSBrG8LOf5X9oIYPSVzhY5grl+AZPY/upRM8o2fRvW2DVi7B38uz2c74qpbgl72q3B02m++viP5U7VXHrwiDGkYXxOiCnF85AFTE510QBzlBjC6I0QU97J3Xc+pGFIczmWSS9ySTlySTnHNAFdF7MdU007FpLriCcfn/H7OSWIpbiEli37Dfg71H0q7k+w0LF5afhPQdRLyQEwgEgv8lYnrfQcQLuR1ESN9BhPSP5z/PknE66b/k82XTfDz/fWpUOEz/LZ8therj+YT5cP/3vLmP5zMmQcL/O1ny4/mUma8A/+cM2Y9HSN9BhPQdREjfQYT0HURI30HeKz1dqjbgXXhizTS8jZC+xieRHssSkbwPf5+0QYyjNryJkL7K55DuGpOsBiIabIT3LrMinUgtJinphXXy08J6JaQv+BzSo9RSACTYjAwN1qQrUEnRJayjkm+9EtIXfArpDaIQWJyrRq6fBgyU6wGj2ARoF5ORo3Q9EI8mqnCgGr1b6axHwcAe4ChlqBe2dDilqH0MH+HQoFxgvRoEugDuwJEncFwOR+4rAKVscByNCekfIr1AlAaTCZGT6B40MihM1AVFJmPohGNWy54ZyYcRqt0a5A+WoUPBQ1n2WtKlIfXtY/gIOZnGQX2tmhE1YUL3GvkNlega3AapQxoK6R8iPU9JsOjRA5SYRY3oAh6YjxEFECQmPRGTIEEh0ClgT+8FGqehT2dMeneQI79uH8NHsCf09WpIZzClC42oAAdkwBV1AcLUFNI/Qnp7/kh/JIoxDZYXU2sPDqkGjGM6sfZOT6YUtqUfUOLkRKV+mkxajvkxfARL83oFE1Kl8ViyBncT4SEFTk6CpAvpHyHdQ3Qx/90AyFHd8lJi0os04dLNvaeDwSDDpJ8CzCg1YMSZ9HOfIvFj+AiW5vUK0mPK0w1Yg3uJ0h06GjAqQvpHSIcOhb0ADWlMDqgQlRbSu5RdSIckM2eSoShAnILS4tX78hg+AtOcf1pBn1SK29KPKQw3NBCv3j9OuuInygWS8TJFboJUhIX0OJF6P5RsoX0Knl6qBXCQf/ogpWh4eadKT6TzEeCaelN9vYKmTEHJHHwaJdqDAsnZ2rQvpH+MdKgWiShyId3JRB33Ujpk2IacZgttdIkoFYe0SnQPXierstoT6XwEiAdJzq9XAFO6A9CIIfclgIlBZFwK6R8knRktxZgGSHsrsIbkda8c5NXAJGZt07xpeA4fQfLisypKBUu6VrJ7SkpMEtP7//pTNmVKAbCki3fkdkb6Axm6kM7YJelpvQIMSdeF9J2RLj5wmSOkC+lCupAupAvpm0A78bUmIX0N2okvMArpa9Bu8JVASN9txPS+g4gXcjuI+C/bDiKk7yBC+g4ipO8gQvoOIqTvIC9Ir8BbxODLQ0h/W3rjrkfGybJ2LPYnDqzVq2H48hDS35Ze7lXTSug16e5A7v8j/dPf73w7fvh6Y+nRAXCeS28k+gf/H+mO/znffL2hdDUZVBkNZls1EjUu/ViN5PzmIx3O/0/S8X8Mt76BdJ96H4/v0SMUKOOdyHVbem18W3IYTDoI6V8KDoePWX9TuqZpFTA56gMUmPSTDiuKd5Z0yZixIiGkf0k4HBq3/or0RyJS16SrvUAgEOxa0mPkFdK/NNhfx62/Ih0eHx8ba9KdA53htqR7SRHSvzTYX/eqdSLgrEmP3i9fvSOFABriOf2Lgv113PrG0kPyuSTVG9CmpgQd1YUjeQLgLmUSpZIEXxh/KT2jxtHkJOfFBZ5MMZct8Kqqoo2qIGJoiP8wF9NUYIac+xBajMxNSjH+DumcHzaXDmeGLKsKSC05AEqO/N1aBuCUTCrwhfGm9LNrxBHV0eQwWMIFs1S7dKDwqkRoQ17ETCqBG9E+W2u/Tsx/UI2HkKOeo0W0huhLBd8hPe7gvC19HSmGYKKkAcCNIH1xD/DNpPtTS+lYwSWDAXKeSM8U6xtKPztcbb/liA/4TLreu0jFt5nmxadsz6QXyT8sj+h2aHTceDNUKqe9cUBHxJtxJJfL7SEe5Axn3JYeCoxbTHrTs88d7YdMXMi4PQ4kVR9i5yxYZp2SahwzQSN3i3pnnKpVrPaF6kGs3fruriO9DKI2SCSzbkTM92R2siiifpQMlm3pyjQRjNQQYyik/8PST8iIHo/ImAbpAY+oekFH5WkTEWP3p15vtowF/4XrNmVJ1/2Zps6kIy6kDzomXmTcJPe1u5QHI1M9VvDPXHvJZvOy4216nNdKO3hgtbVIHtFZD1HGFZJ9eKvq1cAVIromYa93b4ge56gZl/dN6RU1WmgWmXQU0v+l6f0MZzQypR/T0T5aXDMb0zL2i+12ndym9FsnInLpz7g5RXSzvREfYj+AiLmJNaW3qcq6Zq02jrJYinhCwQriUQ1bl+323REyLlKI50MsyPF223lsSi+QjhgV0v/V5/QQnZrS3UWiI/eK9G4rytBM6d3TZ9KLsknBks6O98htjOyzIwfIrGYs0dbz/3HAll7yK5lrDIWRCb3CZIcNXV6RXjeijJApvR5EIf1fk55Yk44YL9LDivTRyeKF3F0XUePS1+DSHdS0pF/dI2LQZ4neNzTE05EtHY8ynQtbenAPw3m04dL3kx7+Qs5nNrNC+r8ivUW3+RXp8av8CdVdMxeXHjfa6NGxSm48j1SxRiWsuOJBl/bC9K5kD9GSHjcKlYNgBQ+c6NF6NSykHFYbMR8IezCU0LSzpIKnRTcqMazrXLrWKyMWEAPH6E7OUPezUnOFQ66KkP5PSi/LFF2RvucnY1rxkY9Lx7IRjvQR1cSt596fmEZ9qBPD+Uy6HPYXFVs66xRMHiAqiV4H470EdT12Gz29G8QQRSLBC8TmkZFKhLA34tLZsZGe6sKaoeLE6KVqI0QnMfT3Sxdfa3ouHWNeXEXTNXMjLvGUzC2VkodZiqGngi9zMyo1V4bxeqy+1q+qi7eZ9DiTHuYndVcrbFQPLqlagyhuRK2KFc/2b8eKLzD+i++931zhX6NcqWhKx38fLl18VflflF4+w7/moagjoi+LryKkf0nSPydiet9R6T//+LN4Ibdr0n91OH4U/2XbMelf/fyNkL4b6945y7/4DyH9f/4NF873X3F+dfz2865L3zn++M3h+FpI3zV+/lU80neTr38/elm6VtXgXUgutwTbkYbtSQvpr/KLw1GD59TDRNSHdxCXiajThi2Q1DZsiyvhEtJf5efjMjxjTy67G3oMNsN3BktC5GmUpoYX1sn4Vo0MJHiDyyN4Du+4ft7XGRwK6RuEEpzPYI7byMDf4C67Jp15kRJlWCd4Dkv2KQ2v85jU4Tm84/p5X8cl60L6X0vvn8KcvbE0tx+NJLoegPzZ3tAIVJnN25Q/FYd85i74YO5NTjW4jyTVLEiXKb/qm0uHwI3nsN4qmluTxTY0VTmsPvBq0qKh6r28BwBNjeUfyr3I1AWLEWZDAE/WpyZZYZ+JX4fdkVfWeaXiBNhRUbj2RcepmgT8qiB7KqT/HemnAbCQUgFHIaCa0/3hfiiVBbiKZGLxJqtv4jEpFd2PD6dQiAbibeiH86XrJNrSXcaxiwJ1tjX4UL2SlUZ83I8rvIo9UCj+6KMqwEGKjXVS2jfH5iNMr9gA5HRUTwyPfSZ+HXZHXtnnPXUCwOEtFP3Hykw+B35VsJcS0v9CeqjVGidbrTyYHE3B4oIUAIXasBdBgHICJH/ZngoSEtsru1graE+zkv/YVLXPpDsceym1wdrm1hoADEf29M6r+Szd6gNkb9m08giQp8ZihN65+btufWPSPhO/Drsjr+zpvUQ6PPp1KN6zYppdXlWbHoX0t6VrPt991udzg8l1ACwyQWBEDmAvBwB1GWLkA4ZdZ/yBQCDnt6XHaMgqOcSkp1qds0emzWtu3bdeU9nSeTWX/hCUGv6SPZZCymIEOQ52b3DW7L38OuyOvLKlQ2AA+RZA8ZK1y8PlVcUoJqT/jek9k2yASW0IVgqF/U/vkKFKylJ6LaUzvLZ0hepm1Zg/p8+1Kdbx3SNbOq/m0tEIXbTmY8XJzUeQyDfvLY0f7L38OuyOvJpLPx+nTy7n0q8Dy6tykyKk/w3psfksnjceAXTyLaQ/0vlSej7ZAIvRIUBaroPJuvS0nGfN8KkVaLCs2mT1vL4/vZyPNRovRxjn570LFLf38uuwO/LKPC8jHamPvXPpvZvlVZWoIqT/pfR0GjhlGilSbL8RuX70ZlvSQjpEwzrEqnbdiHQ9UNIBjnsNDbqtEngunkhnWxWskc6cnIK2qDSKS8jEJVNeJj3hgkKwBosRAmX7Od1zqM7PzK/D7sgr+7wAfdU8ptiVpAe5uryqfGLXP2XbNEeOc5AgkkdQSMnk9MJSuqtIfuPArtle8kfMaTvhT7oxSn65+1R6JUpycsIax37/0bI6JHkGAKrTeiOI/P4+68RH6B+x3mwbddzzM/PrsDvyyj4vQIzKpnS/LCccK1d1d7Lzn6dvnCPH0ZSG5U6DdTAmLQuXG0wkxdzWYD+f05gfj+7VqonAUDNgaq3YHfkIuuxm0nUFgWNfB+/IK37eGCmm9Mtmc/WqpGB8x1fOWNY/XQp03e+xpMMTOn1rntgQqXsIlnRY4yC368ul7By5Tyb9hh7gRenK2Lu5dGmcVF6Q7gkWhHTNtP65pMeU+We48JR2Q9LTm0ovIJgorvXNvp1fGMlz5D6V9L9ErIb9Z3LkhPTdkm5bF9L/LenKSXicK+DfoaomesU9fA+eaBMZBfXWKifhCVrMzl7IkRPS35Z+dv1e5+P7dinvwr9ktjypTnrpYFx+T+5c+QQdJzr6qGuVe8YDWlQj+oY5cu8lnX66Ou6zJs1tLN2fwvdx3cHNKM5WpHsQM8535M5pQR1PaJ9LX4m/Ox28+A2XHx2On77iv9+S7iB4k1Krk39hddxn5C3pheFMLeJZy5+r25lyl8MCHgzP8fCqG9QP78rh+YMxo4ZU48iNsW7COKxeDUMYH9Zxf3iAjHEdLez4OOycO42AwsqWEd7nwXJmGt2hkcjF7bYt/Tz4LHdutX3XR8Qj3zx3jqfM5QN4OaZWx0fZaDLswPxwggeq0ZqhL1L5N6VLzokv6d5uddz2bC/dRzQcTMjZTxhNK1Pumnx4RnsYpmDRHaZUVKYYMkaUnAbZ9ixNTyk7oRu8piyWqYSICnnRZB4fh5GArjN7bXnPVXLZwXJ2Gp2iZrya3bakV6LRZ7lzq+362IX6WJvnzvGUucEIH3pU7PqIOioV8ZgyWiRRO82jxyg8k77BGrlNpddTAJ3bbVfHbc/20juIRxSPjchhTe8L6bKC1o9D8tnS98ysOTe1YrFW0O1PaJGeHOs4LdnURBMeHxeJI95Nsa+iScSHPI0Oi7NFW6eT+5RTeZI7t96upA6w3MV57hxPmevMcD69F9FNYVN6k4LnGiKqB39Hev906U81gn1LOl/XBp5DvZPsHcDi3i7QYT/OIxKw0wBj+9VxK/y30ruITjKJr0s3EK0fN2QeyGPHdDJJYJYydEwZ4xYZGuvD4PFxVtZQJmuXaFY8jc6Uzts67U1Ytye5c+ttLHcwcMFz53jK3DCPy+f0SNCUjpcy9Xys3977pBfoWtd9lnS+rg1cFM7rUX9lcW+XtFwAtrUEjWIeTLZfHbfkP5d+TbqmaXam3A3l8fJ16Z6Iyg714IxyAU8iR/tool4jg8fHcel391w6T6Nj0nnbmt4ZT3Ln1tsYM/aDHp47x1PmAhNTenxNOlZHVGS7Nn6kr6+RO8nx6X25rs1FFwBVai/u7VKgtH23B872q+NW+K+l56k42SvbmXJlUq+SlHlNOp7QIH8bwqZMD2xbGC0cctmFseY8Po5LvzD20d00K55Gh9FL9NhtLv1Z7txqm8nt3CDPneMpc/eXiH3Klleke64nx2aV8G0qfX2NnDrg0pfr2uwFTHJocW+Xi+T801HO9qvjlvzn0rV7IppWrEy5aoKMSWL0qvRCjih5jHgkx7BAA7Sppyg4vpjHx3HpeCeHg3Wr4ml0MyOcsdtc+rPcubU2xinEc+cWKXMPR4j7EUo6ltL1BJFaQG/S877p3Vnj0hfr2myV4L9Y3NslPwZGoAacrVfHwQr/nXSOW3fxTDlN9+CbVEvmAa4mIjY15MS8Go+PW6KVtPU0OmzGeJvzPHdu2TY9e3ju3CJlTjEUtldfG6NSZduwfI3vk56NcunLdW1c+uLeLj7LcWsGjO1Xx73Gl/M27L9FO1B7IXfueoQv4g4XnkvfaI1cniZSw2ffvYWva+PSF/d2cdtuCyBdFYCx/eq4VYR0TrbreSF3zq268SUeau/NhpVuZZmm9t1b+Lo2Ln1xbxcIzwD2DYntuQTG9qvj1hDS36ay6fbNA4ElBfndW/i6tmf3drktApzesIbG92+7Om6JkP6UTxL97fbrrmRpu9VxryKkf07pcDac3r57dZyQ/gqfXDrEfdLWq+PeRuTIbY8I+d+lb7hwvhfSBYxvdyIQ+NuvBCt8txPR3999JfiTHbtJYRAGgzD8hWAk8TcuRF3L3P+IpaXB0AsUMvNsdP8SNFNx492+0ZnUXN/dbet6Nf+38zQhM63rZMIlAMGESob3yCZE0ozrwpxMeOw4zA7sJjS2AYvZgmEzYRERy0NIfI54OfDC4cD+fNqFwoU5PT/xJgSSR66u67q2MTgR6mFOEzyB9+iuCZ5MQHSVqAm+fRm/NME3L/gvoLzpqNMATNgoOiFFJ6TohBSdkKITUnRCik5I0QkpOiFFJ6ToL3buoAZAGAiAoJmmBAX17wwPPA6SnbGw/w0SPUj0INGDRA8S/Xvj+5G91yT7kT+Mhs5Zs4yGLMUwDyyyCQ0SPUj0INGDRA8SPehl9Ot+2LO3nrTBAIzj3+XhwbcWaK1tRxGopWI4CAJDjo6DK6Ic5ve/3Au4SdmyJd5gtv5DwvuEy1/SkjaZwrtqNE+r+EsReqgPgv5lSjJdftscYb8Ma/h9a8rcS/y5CH2/j4GeJVtdN994B7rPXjtNFhDOWBXCK0J/62Ogz9gBoONd6HVgzBbCFTgIrwj9rY+BHtBNQda0fOCT1Zfo3ZF98gBgcmX26lt0EZTSvU4ZeCpp7lw0Zq2p+rRDz5Ipq15IT2B0HDtzgUmPtnUZWveWpQN31ufB87mqqZ+B2L2rqV8j9COhJxXm+5L9hjZQY0ai08mRSUzIXrqyRUfLbU/ZQkrR1l0LS7ojtb5Dr7CXoEZlqWvMOXSqC42mXQmtIMcJqtS8Nk1Vo+OhTbujKEaEfhx0xHukttxHdz1hcQabgYDYoTcg0RgrcihPeOYCMp/WfYesJMiiEDO2xYvKwu6CHl51WihyJK1nSJiMX3Pqoc9JhH4kdHhPLnm+hz4CAq5j5OnPe3pqOb4jz/Q8p4MUnsirSwGfsnwAiQ6gI4Wx4GjHHF4S+uKRnyT6LWBxWWNuNFLZj9CPhQ4IlbMbOnvoMz5Kypcf6IajrGcKPRgZhWkPD0NKS5/zbLmBV/Q2a0CFa8k8Ply446Q3FTv0KxaXdAeybIR+HPSYVIPFQCdjGNPfoguVE5is7dC/YME5qiYFAN3hNYAH9nb3dPxAH/AR6DKQzJnDhSRVib9FT5DJLG0R/Xs/HnrFLPk5KkmRZ6tksivR7XGLTgxzKhl/hUemx3XmR2mF3vWwHyiO6PuVZ84P0A1ybdFsIk7z+Vt4ARZ5vkEfjqcsQbgcBitVROjHQV+ZJN2vwKVCJ1tyEbdJqmWg6pOSNmtSq5aYX6xo3DrkSQ1jhUr35gAdmx9zccBTJfjBQpE5sUGXlXTAOCHpJyL046BD6OUUNp2dCrweYtgWK28ODaMhjwLYfJpNyLybF/ymi+brt/7LeuAMG/Ri+QzbEoYXXd7/7bdsK0e52KLfRk/k/hd0nawjQpf9R+jf2buz5/SpKIDjjuOD747jizrOOYdmDyFhD4GylX2n0LKXrtDl/3/0JiGlWMXa1qm1+T6Ye3+Q6Pix6cKhgiC4Bxl99C+D7r/gsslH99F9dB/dR/fRXxJ9ibc1+eg70Zd4A6OPvhN9jb7x89G/dl/49v594H/dD9/6X8g9L/A/77tv/W/Z/gQd/8c56j76V0PXmbqP/sXQJVvdR/9a6Oio++hfC91V99FfhV68xNdWS2j4EbnorvqL0Kuwp7YCn6+3oVdHBfyTlFvp2fp5gwZ+TNvv1/8evXU7JHW63QfIW6XqANkFTyUNPltvQ1+O8M8SSHm2fp451PBDMgNef49eGdYOhehfoc9l7mgxhs/WPvTqbLgIy+ejItZHZ3h8Pl0MJ4h6yYqcYHG0Fks4zaJ+exkfZhFX8wMR5d4i3ajKHeqIKJ2m4jdJZ70UGW9jhb11enHTRqzn1QMTq8MofmgvQU+cgtdzdKfLHny29qEvaVC5aV+SjnPKYIzEKc+HkovFuER1nWh0iqkjjFJWifI6Xg31mnZwKXQjdemI5BquDvR2LuGspXgB8aCJ8YEgjMZYNJbKKo04XeHH9HJ00YqIrBbTFtVUw0OfiPG8sUG/u4TP1j70CQ2OEB/R+SBOqT6hcdKkmU49xDYpGI1UnU/PV2PELtUQVzn3lt7JIhZJctbjHJbjGsYDiBMRT0rdbpOCWEngx/RydF28M80MPUCRsqFrvumiNxarckB10Q8jBfhs7UMPlogGwUd0lYFS5pzsTnXqI8o8YjSGiIkLvLpAbKaQqYZddMtEDFLNWZcNIXuJGD9CrKex30mwJMwM8OPajy5JUhXsBicARYY+7bFN6dZB59T19vY+iXHw2dqDzjJLdH9FBTzfoB9Tc0kVSZI0B10gyUWPZBz0I1VCnI1d9FgBMRBz1zjI9pYu+qyH4yk6Zf+zH+kPRCTuoIvDcDgc6TvoSQo9oiuLJXy69qGbF4UpNSskXliUxRifnRkRRbJSjfqV4qBrqozRlCTNLcFBl4YNLKYDKBmyhqclKTiduWsshGMaQw+gmVqjqXZRkxFPx/hh7UeHh4eH1g76wanMCjroIRI8dO54Cp+vfegZg9Sbai1F6nVqjDEiSrE/X6tE+aKDjqUJRikejyzRQUdzmKI+000sUqH2wLJGZXeN2vAKGboa4y+qiBU1Fj9BFAv4Ye1H99qiJ+62X70jRQFaqo1+nm/B52sfOkqy5PxVQ1ZMFcpVZGlyEjdlehiNJUO4raZsD23BWzN000Y3nQuybZkd5YiEr+hj0KP8Gcc1W9ClNgc9UcExfw1QHwbK5TJ8tvahb3PR8VlKSo/G8O8TLkRE93P6tn4FX9EHocNc5XlRAK7Dh0HIk9FvZKHIk92n+0ru5ei5MD4veqfn8O+7L8nI6hVxW62k4Ue2H/15XBLBTjgEgCAC9+ms3+1Vtiq+uip+bAzdf5Xty7y06qP76D66jw7//3x0H/05elY00W6aD+FjWraUzxW9XU1EN1HA0DSWutXwXVvepMNr9LqLotN4jVLlID4I+ejvij6/RBxTE+2OI2V8bJ3uluuCtysTulEI9bmwtNb4grrznfVflzTqNTOKXuIZOiUaKF3Icinno78rupHeomMVt52eotcuussxxhc0P95Z/3VmCp2eo9vVY29A99/W9Ay9RMaoMqbVSO0F8WokuJM0iHi1iOfz+Yw3AuOgR8OLzgZ9cI92R1E7BVmrSdgSdcTePFJhJ1miidmIml9tRm2c9Wa8xpvEYYM3Vi6IiIUhz/5mCUR5YEUqLrpwk4rEXfRJ6Q3o/hsYn6FPSU1MxqTeROgeB1RzJ2kQMXk3C4VyFW8ExkaXjWxbdtGTlmt/2rNz1lfWkXSb1jB+IyeLxlrJWO32eS/U3ozaOOvNeI03ibMS5Vr4AhGV61golBmhdjBum/yRjV4VE8V2yUU/zr4B3X+r8l/d3ue4prGN7kzSOF0yjZuKNwJjo68OHm/vt338Y1czxCB7NK4jnoQRMX+N8+PtqA1be+M13iRO57zbvR0ga5lGPBthkTe73YOJjV4k2bu9mxHFR/8X0JsYpZmN7k7SbNG9ERgbvT/z0PVIEp1KvF3RQWfP1/iu84pL/9QZqmDQ21EbtvbGa7xJHKvHLl15gt5UE6yojd6M4AZdyZ+hf3t/z9s7GqkddHeSZovujcCUyf3wlmz0ZKyJO3noAWo76Bd3iBjRGfR21IatvfEabxInVkA3D/3I0rwv5HR7mbPR+318G/pv3/3kfyG3g96hVeEJujtJo6yVDbo3AlOjIJ7Fa9igMirhhqJIf3J7F3LH6KCbarFaj1SxfoCaN2rD1t54jTeJMysFUUhiU/bQpWEFsYgYnmDQWqNssG2l1FaUN6H/GAj85n/L9hS9wlPiCbo7SaOTvkHfjsCkVtqdkbpJ6DjleaLwM3Q+ZpQEF52dFLHqiEJq2PNGbZy1O17jTeK0B2o6FcXh2ENnz40PRQUbqojX6jDdGGOBDCKqven2/tN3v/joT9FxZyjGm6RJotN2BAarZY0pJVGr4p93NS63n1wmpDnnOoea4q3d8ZrtJE6wVkVsa7it5lxECCJKNaxq7/hj2G9/9tEZ+rt2dfHS8RqGjq/oreg/Bn792UfHd60yf/F4zb5JnH8P/edfAz/46PgFYujbfvI/0r8eutPP3w/+FF0SWvCqOCXIwds6BNb7XuNr/koxt+fovwQCDXhWViSiy+0+k4edLqfwF5k8EfW68IY4sQtvTUkpO/sv+csDvb7/5o/9NKnAHzujtYZy9zXoUdJa5Rs1BLtl9acipxzs6XwAO/3Vifoc/rrTY/9Xf++JyKNew6ZZGOxeh85cuFQFdoucwbYj2ncDf7Bk2OmvTrzNwV+n8LKP/gL0k9mjsSGAXVk8BAiJLch0GrH4ncY4V2kjbbroheP08E4CqOStke4dHHQIX2nHzU4JuPO0VepCW+Rj4r23u+7QSAyd3wGAJCYL95Vh/EYB+1FD1AHWIwAtp4uWvSlkbyP3EEzEU31tc6K3u4tbYo4rXdv/JAm41BOLdIMD+1HrRgLIzXz0f4ReFa3sAzsWqeW+2yVDCVmPMaaLeDZptl3060JoGbuFEG+2A0nv4KAr6kShcLMLJ5H72gUvtMzFiSl4u+Q9Rc0HnWoA9TRk+Gn5KJ0DOIkVypcWws0FgEIHgdpU1dijV2aSS4cDxbAI7onerpgIm12YHQDA8QpKxkRY82fApRNH5ugGIJP20f8OPdrpLKxOpwBOD+dWfP0UfYEAZ3TIGZXd2/t4AE1VYQvvEKVAIJMWWwodAXBGAwBGY/f27u02d+nOCUBuxS79AFCgFmdMAOyzhmf2sem+YTKT4gCWJAAI1HVP9Hbu7b1MMjwYMpTu2OYmB0teYeARgC49+Oh/gy7p+l1O14OwCc8p+wQ9DwAhSiZJ36Jz3UmjdAwPYetUAO8QpXSnN39gbCGApC0Pp8cuurfboN9HuJZRdi8tkJCkUTgc5qPAm+CeDQcN99FsBFjxunuit3PRIXwKhQ5A6ZytKyPIGuwqeQMgSUkf/cW3d6/ziOO9RZcpWCPhEf2w1FnNewmGvxwYXe/gfk7fsAnO0/sDF93bbdBRjS474F7apKBATZnV4kjfnM0t7t1HGyNgO3XtnujtNuhni8Pp+Qb9MgyNtMxiZwdJ8NH/MXrT4ARqAywJ3X/3awse6OwR3aQqwMUd2A2uvMMO+iFfYMvYDCBVf7LrUsu5yN3sfIM+XrBHm+C0KGzOLpLpPlpQHwBk0p0Tt7vxMbAO481FaIM+vIKC1QKnMlV99L9HPzyETdEjjSvm76ClVrjaiNcgMwy2JpEGQCImQ7IG4zDHdWndCsRvIBTipNiFd9hBh35HwAbJzGQG0uNOIpNDBmelQww9pUAx0rCfWwZtCRCuuJ/TtWORc9Fb8cuHUK7DuSc+7ibDlmT/tyrazyn1Oe6er7Hn9jUoywCF1Jf/4cze/7MD/LE+EfGXCHBPRkov1UCPES0qHNMokaHWoasac7glKhXCMOcNCkveYRe9miDeumaLiWEMtrtj4tfsIB4AQ+fJME44AEyQwfcZ4gBAYX9GvSC46FBM83QQ8k70dkLKsIIASarY6AbPpwLOc8mInwHcTv0fw/7e3rktpQ2FUbi96LQXvWxfYK8fSEgglINAABE5g6VBDh6o1VoV8fD+t0122IR00ElD69CS72JHQmAYvyHOmD9r/V6zQ0STbXcwRHiowmygR6yHurWAt6Pv6THGxMYFP3D+RtryIwPWGq0wS2tHjsyP5T+okmZKV2WwJWIKEy90HkX48TrJlvQfhiGO1aznMoVtv+Cykc0OvVSCS2e/MDjm5wmPRIYjxqUzFwfVrb/KtonNDjf0yFZKly8+eZceuSjJK6QnMvVA+gY2O+gy3yhd9iuHXyLqnlfpdfCtHHPvTgbX04Nmh+2UHjQ7bKN023og/S9Jb02quXANAhEr5k4YcNONFo+aZfghkTeWA9Cm2am7PMTd7BBIf176+TX88XB72Oo5pnONVTebu1FJbR1ctP1kGLTPEDpTF1GH5fijUx7isdnBL3t7v47HbWrSnGfpqV34IiapEHiXngAqYR8ZBkpGxRk1FtLReaY8hEv/EAp9fCW2z0kPEXuWVn9QWzEet4k8J92u7Djvp6o9O6Bg0exxNcyoo/t2dv5trER3ovGxBn1YjI+6V6c7KJz20Dg9gElxBoubKXCZB3KT3YsHDTjox7MNLv04nDNfAfPd0oq9cunfMzzDQOQWeMswqKXx44L6A1P656PSDLXTKdT9UvGMl4f8TemR8DRZ0nyMx3nhBaXzyo4phY+LcYMHFDjNHpmmlqXdvEQ6TCZUus2Y+/fp9hvtT+kG17SPNrVg0os3QwBG5/Ydablmt2vqO5TKsVaMS+91jckp9HgrcThfLemdfJ5nGIjcAm8ZBicTPB5Rc4gsZfMSyV+pgmu6ml2J8hC3dA8zcl6l93YZG8x8jMd54UWlD4AxFfQJhZDaXW72kMGXESVt6WUruECjvq73M1qqqOSOJH0QBkc+id8qjvQQ8JjGcXT59J4swpDOFcxXlc4edsMyckknt8BbhsHgDvPTu9S1Pp0lfUwzGUA77126+9KqeRrLHHPpYrCNJUbqoHR0wBbdLmxgLt9zEYboAbNYfzzO4WWlD4EwWRTc0uMAX24oBCzuYVfJooh9qpD5247PMOdTf+ZIb1indgxPFtLPo+FsFriM5srzVaXyNAl+rMgt8JhhcFqzpYtPZ0kvZCjVBspjn9LrdK2qSS5dDLaxGGVraj7VWXS77El1Zu5tsS/NGrNYfzzO4cWlX5OqKIodUMCbPZ6WnshFraYP3FE1nShWqQFBe8yDIw7m0m/GuH8Q0nvFFgp9LkFq2Sv/m25LF7kFHjMM0lNLesElHbG7HOmoeP+mu2fkzqri9O4MtsXokrEuHS66Xeq05/S6/JnxOBcvK71GzWm5bQcUiGaPJ6TjjE5qsx0YEj2a+7KwSBQ6kKMz3I+gpcP89B4q3uEy3oBmWAkDd0VDualC06HHG/bqSHcqQrxlGDz8AI5pv70svVKp9XMKTiaepbtn5KInQroz2GZPMEk7i26Xy9L88qhg/fE4hxeXrjwQ0W2HBxSIZo+npNerRKWvwFjSUacTWNRzqWJqqEDNHGVrVWCUypR+dIB7KZvpWQkDsXSqeJ7FTmk3NZyvjnSnIsRbhsHjGGjkqKQtSR8RHT0C0ZrP03v4s5DuDLZxlSx1ueh2qV0wk/RnJlh7PI75xr90B02NiYAC3uzxHN2WdUDMAGAo4HT0lmJHEXTAt/J8y3fLGg8eUKzHBsTqphvznGEgx2UgoSpYxlDBy0N8St/PC+nOYJuQvuh2SXLH/TsmWHM8bjX/zL9hfeE7w+B6gtUM21gh3cuMXI2mkS9J3t4iBtsc6aLbRbPd1lnkqs5M1h+PWyaQ/myGgRbV4OAqD/GbDRuZSRLd8vYWMdjmSBfdLix7x1gjHjGf4QMM64/HuQik+yoJ6awRCByRIdpb+GDbqm6XWZOxb9bssyKeX3c8ziGQjs3Me9dSaqzUWns8bjWB9M2Uzs5Pb2e+x+MC6U+w4dJZIRlZczzu7xHEjwiCkP9tusNF8C6QHmDyZisCgd+8Clji7VZEf799FbDE6/f0//P+9asAl/W3b+j/5s3bwHlAQEBAQEBAwH/AT0gewvZ9CqZiAAAAAElFTkSuQmCC;" vertex="1" parent="1">
          <mxGeometry x="123" y="190" width="581.25" height="465" as="geometry" />
        </mxCell>
      </root>
    </mxGraphModel>
  </diagram>
</mxfile>
